# Blender v2.79 (sub 0) OBJ File: 'ships_icon.blend'
# www.blender.org
mtllib ships_icon.mtl
o Plane
v -0.453606 -0.622965 0.011719
v 0.453606 -0.622965 0.011719
v -0.375961 -0.622965 0.011719
v -0.120171 -0.401511 0.011720
v 0.375961 -0.622965 0.011719
v -0.180061 -0.122965 0.011720
v 0.120171 -0.401511 0.011720
v 0.180061 -0.122965 0.011720
v -0.060302 0.406490 0.011720
v 0.060302 0.406490 0.011720
v -0.156236 -0.093510 0.011720
v -0.180061 -0.122965 0.011720
v 0.156236 -0.093510 0.011720
v -0.096345 -0.394282 0.011720
v -0.156236 -0.115737 0.011720
v 0.096345 -0.394282 0.011720
v 0.156236 -0.115737 0.011720
v -0.453606 -0.622965 0.011719
v 0.375961 -0.622965 0.011719
v 0.453606 -0.622965 0.011719
v -0.120171 -0.401511 0.011720
v -0.375961 -0.622965 0.011719
v 0.120171 -0.401511 0.011720
v 0.180061 -0.122965 0.011720
v -0.060302 0.406490 0.011720
v -0.156236 -0.093510 0.011720
v 0.060302 0.406490 0.011720
v 0.156236 -0.093510 0.011720
v -0.156236 -0.115737 0.011720
v -0.096345 -0.394282 0.011720
v 0.096345 -0.394282 0.011720
v 0.156236 -0.115737 0.011720
v -0.180061 -0.122965 0.046878
v -0.453606 -0.622965 0.046878
v 0.375961 -0.622965 0.046878
v 0.453606 -0.622965 0.046878
v -0.120171 -0.401511 0.046878
v -0.375961 -0.622965 0.046878
v 0.120171 -0.401511 0.046878
v 0.180061 -0.122965 0.046878
v -0.060302 0.406490 0.046878
v -0.156236 -0.093510 0.046878
v 0.060302 0.406490 0.046878
v 0.156236 -0.093510 0.046878
v -0.156236 -0.115737 0.046878
v -0.096345 -0.394282 0.046878
v 0.096345 -0.394282 0.046878
v 0.156236 -0.115737 0.046878
vt 0.421902 0.455595
vt 0.421902 0.974915
vt 0.264351 0.778443
vt 0.364276 0.489552
vt 0.843805 0.000000
vt 0.843805 0.519320
vt 0.786178 0.485364
vt 0.686253 0.196472
vt 0.081160 0.000000
vt 0.183191 0.000000
vt 0.264351 0.455595
vt 0.000000 0.455595
vt 0.764351 0.573892
vt 1.000000 0.519320
vt 1.000000 0.804042
vt 0.764351 0.749470
vt 0.481391 0.455595
vt 0.481391 0.740317
vt 0.451647 0.740317
vt 0.451647 0.455595
vt 0.873549 0.000000
vt 0.873549 0.491776
vt 0.843805 0.491776
vt 0.843805 0.000000
vt 0.873549 0.460300
vt 0.873549 0.284722
vt 0.903293 0.284722
vt 0.903293 0.460300
vt 0.498958 0.759418
vt 0.498958 0.526344
vt 0.528702 0.526344
vt 0.528702 0.759418
vt 0.000000 0.000000
vt 0.000000 0.000000
vt 0.000000 0.000000
vt 0.000000 0.000000
vt 0.000000 0.000000
vt 0.000000 0.000000
vt 0.000000 0.000000
vt 0.000000 0.000000
vt 0.000000 0.000000
vt 0.000000 0.000000
vt 0.000000 0.000000
vt 0.000000 0.000000
vt 0.000000 0.000000
vt 0.000000 0.000000
vt 0.000000 0.000000
vt 0.000000 0.000000
vt 0.000000 0.000000
vt 0.000000 0.000000
vt 0.000000 0.000000
vt 0.000000 0.000000
vt 0.000000 0.000000
vt 0.000000 0.000000
vt 0.000000 0.000000
vt 0.000000 0.000000
vt 0.000000 0.000000
vt 0.000000 0.000000
vt 0.000000 0.000000
vt 0.000000 0.000000
vt 0.000000 0.000000
vt 0.000000 0.000000
vt 0.000000 0.000000
vt 0.000000 0.000000
vt 0.157552 0.974915
vt 0.099925 0.940959
vt 0.000000 0.652067
vt 0.157552 0.455595
vt 0.686253 0.519320
vt 0.528702 0.322848
vt 0.628627 0.033956
vt 0.686253 0.000000
vt 0.447542 0.000000
vt 0.528702 0.455595
vt 0.264351 0.455595
vt 0.345511 0.000000
vt 0.528702 0.749470
vt 0.528702 0.573892
vt 0.764351 0.519320
vt 0.764351 0.804042
vt 0.481391 0.740317
vt 0.481391 0.999735
vt 0.451647 0.999735
vt 0.451647 0.740317
vt 0.451647 0.759418
vt 0.451647 1.000000
vt 0.421902 1.000000
vt 0.421902 0.759418
vt 0.217040 0.919441
vt 0.187296 0.919441
vt 0.187296 0.455595
vt 0.217040 0.455595
vt 0.498958 0.455595
vt 0.528702 0.455595
vt 0.157552 0.947371
vt 0.157552 0.455595
vt 0.187296 0.455595
vt 0.187296 0.947371
vt 0.528702 0.804042
vt 0.558446 0.804042
vt 0.558446 0.913936
vt 0.528702 0.913936
vt 0.903293 0.259418
vt 0.903293 0.000000
vt 0.933037 0.000000
vt 0.933037 0.259418
vt 0.264351 0.919441
vt 0.234607 0.919441
vt 0.234607 0.455595
vt 0.264351 0.455595
vt 0.421902 0.759418
vt 0.421902 0.688670
vt 0.451647 0.688670
vt 0.451647 0.759418
vt 0.873549 0.000000
vt 0.903293 0.000000
vt 0.903293 0.284722
vt 0.873549 0.284722
vt 0.421902 0.455595
vt 0.451647 0.455595
vt 0.498958 1.000000
vt 0.498958 0.759418
vt 0.528702 0.759418
vt 0.528702 1.000000
vn 0.0000 0.0000 -1.0000
vn 0.0000 1.0000 0.0000
vn 0.8773 0.4800 0.0000
vn 0.0000 -1.0000 0.0000
vn -0.6545 -0.7560 0.0000
vn 0.0000 0.0000 1.0000
vn -0.9777 0.2102 0.0000
vn 0.9777 -0.2102 0.0000
vn -0.9821 0.1884 0.0000
vn -0.8773 0.4800 0.0000
vn 0.9777 0.2102 0.0000
vn 0.9821 0.1884 0.0000
vn 0.6545 -0.7560 0.0000
vn -0.9777 -0.2102 0.0000
usemtl Material.001
s off
f 1/1/1 6/2/1 4/3/1 3/4/1
f 8/5/1 2/6/1 5/7/1 7/8/1
f 9/9/1 10/10/1 13/11/1 11/12/1
f 14/13/1 15/14/1 17/15/1 16/16/1
f 32/17/2 29/18/2 45/19/2 48/20/2
f 20/21/3 24/22/3 40/23/3 36/24/3
f 30/25/4 31/26/4 47/27/4 46/28/4
f 23/29/5 19/30/5 35/31/5 39/32/5
f 14/33/6 16/34/6 31/35/6 30/36/6
f 8/37/6 7/38/6 23/39/6 24/40/6
f 6/41/6 1/42/6 18/43/6 12/44/6
f 17/45/6 15/46/6 29/47/6 32/48/6
f 11/49/6 26/50/6 25/51/6 9/52/6
f 5/53/6 2/54/6 20/55/6 19/56/6
f 16/34/6 17/45/6 32/48/6 31/35/6
f 9/52/6 25/51/6 27/57/6 10/58/6
f 4/59/6 6/41/6 12/44/6 21/60/6
f 1/42/6 3/61/6 22/62/6 18/43/6
f 10/58/6 27/57/6 28/63/6 13/64/6
f 3/61/6 4/59/6 21/60/6 22/62/6
f 13/64/6 28/63/6 26/50/6 11/49/6
f 7/38/6 5/53/6 19/56/6 23/39/6
f 15/46/6 14/33/6 30/36/6 29/47/6
f 2/54/6 8/37/6 24/40/6 20/55/6
f 34/65/6 38/66/6 37/67/6 33/68/6
f 40/69/6 39/70/6 35/71/6 36/72/6
f 41/73/6 42/74/6 44/75/6 43/76/6
f 46/77/6 47/78/6 48/79/6 45/80/6
f 24/81/7 23/82/7 39/83/7 40/84/7
f 31/85/8 32/86/8 48/87/8 47/88/8
f 26/89/9 42/90/9 41/91/9 25/92/9
f 19/30/4 20/93/4 36/94/4 35/31/4
f 12/95/10 18/96/10 34/97/10 33/98/10
f 25/99/2 41/100/2 43/101/2 27/102/2
f 21/103/11 12/104/11 33/105/11 37/106/11
f 27/107/12 43/108/12 44/109/12 28/110/12
f 18/111/4 22/112/4 38/113/4 34/114/4
f 28/115/4 44/116/4 42/117/4 26/118/4
f 22/112/13 21/119/13 37/120/13 38/113/13
f 29/121/14 30/122/14 46/123/14 45/124/14
