# Blender v2.79 (sub 0) OBJ File: ''
# www.blender.org
mtllib hull.mtl
o Curve.004_CUpath823-6-0
v -0.382065 0.395212 0.023635
v 0.381445 0.395212 0.023635
v -0.000310 -0.395443 0.023635
v 0.000530 -0.396061 0.023635
v -0.172358 -0.262157 0.023635
v -0.231181 -0.209814 0.023635
v -0.257230 -0.184127 0.023635
v -0.280655 -0.158898 0.023635
v -0.301184 -0.134267 0.023635
v -0.318622 -0.110342 0.023635
v -0.333102 -0.086934 0.023635
v -0.345074 -0.063716 0.023635
v -0.354871 -0.040541 0.023635
v -0.362756 -0.017311 0.023635
v -0.368960 0.006062 0.023635
v -0.373691 0.029646 0.023635
v -0.377142 0.053483 0.023635
v -0.379502 0.077592 0.023635
v -0.381733 0.126618 0.023635
v -0.445479 0.458626 -0.030778
v -0.000310 -0.474194 -0.030778
v -0.001149 -0.396061 0.023635
v 0.171738 -0.262157 0.023635
v 0.230561 -0.209814 0.023635
v 0.256610 -0.184127 0.023635
v 0.280035 -0.158898 0.023635
v 0.300564 -0.134267 0.023635
v 0.318002 -0.110342 0.023635
v 0.332482 -0.086934 0.023635
v 0.344454 -0.063716 0.023635
v 0.354251 -0.040541 0.023635
v 0.362136 -0.017312 0.023635
v 0.368340 0.006062 0.023635
v 0.373071 0.029646 0.023635
v 0.376522 0.053483 0.023635
v 0.378882 0.077593 0.023635
v 0.381113 0.126618 0.023635
v 0.444859 0.458626 -0.030778
v -0.180014 -0.338003 -0.030778
v -0.244969 -0.283216 -0.030778
v -0.274890 -0.255772 -0.030778
v -0.302750 -0.228299 -0.030778
v -0.328281 -0.200802 -0.030778
v -0.351216 -0.173284 -0.030778
v -0.371286 -0.145749 -0.030778
v -0.388331 -0.118193 -0.030778
v -0.402543 -0.090632 -0.030778
v -0.414179 -0.063108 -0.030778
v -0.423496 -0.035658 -0.030778
v -0.430752 -0.008323 -0.030778
v -0.436205 0.018858 -0.030778
v -0.440112 0.045847 -0.030778
v -0.442731 0.072603 -0.030778
v -0.445136 0.125261 -0.030778
v 0.179395 -0.338003 -0.030778
v 0.244349 -0.283216 -0.030778
v 0.274270 -0.255772 -0.030778
v 0.302130 -0.228299 -0.030778
v 0.327661 -0.200802 -0.030778
v 0.350596 -0.173284 -0.030778
v 0.370666 -0.145749 -0.030778
v 0.387711 -0.118193 -0.030778
v 0.401923 -0.090632 -0.030778
v 0.413559 -0.063108 -0.030778
v 0.422876 -0.035658 -0.030778
v 0.430132 -0.008323 -0.030778
v 0.435585 0.018858 -0.030778
v 0.439492 0.045847 -0.030778
v 0.442111 0.072603 -0.030778
v 0.444516 0.125261 -0.030778
v -0.445479 0.458626 0.023635
v 0.444859 0.458626 0.023635
v -0.000310 -0.474194 0.023635
v -0.180014 -0.338003 0.023635
v -0.244969 -0.283216 0.023635
v -0.274890 -0.255772 0.023635
v -0.302750 -0.228299 0.023635
v -0.328281 -0.200802 0.023635
v -0.351216 -0.173284 0.023635
v -0.371286 -0.145749 0.023635
v -0.388331 -0.118193 0.023635
v -0.402543 -0.090632 0.023635
v -0.414179 -0.063108 0.023635
v -0.423496 -0.035658 0.023635
v -0.430752 -0.008323 0.023635
v -0.436205 0.018858 0.023635
v -0.440112 0.045847 0.023635
v -0.442731 0.072603 0.023635
v -0.445136 0.125261 0.023635
v -0.445479 0.390512 0.023635
v 0.179395 -0.338003 0.023635
v 0.244349 -0.283216 0.023635
v 0.274270 -0.255772 0.023635
v 0.302130 -0.228299 0.023635
v 0.327661 -0.200802 0.023635
v 0.350596 -0.173284 0.023635
v 0.370666 -0.145749 0.023635
v 0.387711 -0.118193 0.023635
v 0.401923 -0.090632 0.023635
v 0.413559 -0.063108 0.023635
v 0.422876 -0.035658 0.023635
v 0.430132 -0.008323 0.023635
v 0.435585 0.018858 0.023635
v 0.439492 0.045847 0.023635
v 0.442111 0.072603 0.023635
v 0.444516 0.125261 0.023635
v 0.444859 0.390512 0.023635
v -0.340702 0.345127 -0.009860
v 0.340082 0.345127 -0.009860
v -0.000310 -0.359861 -0.009860
v 0.000439 -0.360412 -0.009860
v -0.153716 -0.241017 -0.009860
v -0.206166 -0.194345 -0.009860
v -0.229393 -0.171441 -0.009860
v -0.250280 -0.148945 -0.009860
v -0.268584 -0.126983 -0.009860
v -0.284133 -0.105651 -0.009860
v -0.297044 -0.084779 -0.009860
v -0.307719 -0.064076 -0.009860
v -0.316455 -0.043413 -0.009860
v -0.323485 -0.022699 -0.009860
v -0.329018 -0.001859 -0.009860
v -0.333236 0.019169 -0.009860
v -0.336313 0.040424 -0.009860
v -0.338417 0.061921 -0.009860
v -0.340406 0.105635 -0.009860
v -0.001058 -0.360412 -0.009860
v 0.153097 -0.241017 -0.009860
v 0.205546 -0.194345 -0.009860
v 0.228773 -0.171441 -0.009860
v 0.249660 -0.148945 -0.009860
v 0.267964 -0.126983 -0.009860
v 0.283513 -0.105651 -0.009860
v 0.296424 -0.084779 -0.009860
v 0.307100 -0.064077 -0.009860
v 0.315835 -0.043413 -0.009860
v 0.322865 -0.022700 -0.009860
v 0.328397 -0.001859 -0.009860
v 0.332616 0.019169 -0.009860
v 0.335693 0.040424 -0.009860
v 0.337797 0.061922 -0.009860
v 0.339786 0.105635 -0.009860
vt 0.549367 0.879485
vt 0.568178 0.996572
vt 0.549367 0.996572
vt 0.499807 0.333716
vt 0.500000 0.519300
vt 0.000193 0.333716
vt 0.489890 0.842197
vt 0.459333 0.857329
vt 0.459333 0.842197
vt 0.489890 0.641223
vt 0.459333 0.687695
vt 0.459333 0.641223
vt 0.489890 0.857329
vt 0.459333 0.871688
vt 0.530557 0.741660
vt 0.500000 0.764115
vt 0.500000 0.741660
vt 0.489890 0.871688
vt 0.459333 0.885347
vt 0.530557 0.719944
vt 0.500000 0.719944
vt 0.489890 0.885347
vt 0.459333 0.898381
vt 0.530557 0.699067
vt 0.500000 0.699067
vt 0.489890 0.898381
vt 0.459333 0.910862
vt 0.530557 0.679129
vt 0.500000 0.679129
vt 0.549367 0.680762
vt 0.568177 0.637568
vt 0.568177 0.680762
vt 0.530557 0.660228
vt 0.500000 0.660228
vt 0.530557 0.642421
vt 0.500000 0.642421
vt 0.530557 0.625646
vt 0.500000 0.625646
vt 0.530557 0.609824
vt 0.500000 0.609825
vt 0.530557 0.594881
vt 0.500000 0.594881
vt 0.428775 0.973111
vt 0.459333 0.664360
vt 0.459333 0.973111
vt 0.530557 0.580736
vt 0.500000 0.580736
vt 0.530557 0.567314
vt 0.500000 0.567314
vt 0.530557 0.554537
vt 0.500000 0.554537
vt 0.530557 0.810846
vt 0.530557 0.764115
vt 0.530557 0.542327
vt 0.500000 0.542327
vt 0.489890 0.910862
vt 0.459333 0.934460
vt 0.568177 0.857361
vt 0.568178 0.879485
vt 0.617545 0.637800
vt 0.586988 0.668259
vt 0.586988 0.519300
vt 0.489890 0.687695
vt 0.459333 0.710056
vt 0.489890 0.710056
vt 0.459333 0.731706
vt 0.489890 0.731706
vt 0.459333 0.752549
vt 0.489890 0.752549
vt 0.459333 0.772489
vt 0.489890 0.772489
vt 0.459333 0.791432
vt 0.549367 0.879780
vt 0.530557 1.000000
vt 0.530557 0.879781
vt 0.489890 0.791432
vt 0.459333 0.809322
vt 0.489890 0.809322
vt 0.459333 0.826219
vt 0.489890 0.826219
vt 0.964388 0.483997
vt 0.964201 0.334471
vt 1.000000 0.481381
vt 0.750000 0.043841
vt 0.750471 0.043497
vt 0.653381 0.118041
vt 0.549367 0.636504
vt 0.530557 0.679416
vt 0.530557 0.636504
vt 0.549367 0.700982
vt 0.568177 0.700982
vt 0.549367 0.720093
vt 0.568177 0.720093
vt 0.500000 0.537946
vt 0.499429 0.519300
vt 0.500000 0.519300
vt 0.549367 0.737938
vt 0.568177 0.737938
vt 0.500000 0.933664
vt 0.500000 0.810846
vt 0.549367 0.754404
vt 0.568177 0.754404
vt 0.549367 0.769620
vt 0.568177 0.769620
vt 0.549367 0.783883
vt 0.568177 0.783883
vt 0.549367 0.797373
vt 0.568177 0.797373
vt 0.549367 0.810224
vt 0.568177 0.810224
vt 0.549367 0.519300
vt 0.530557 0.519300
vt 0.549367 0.822554
vt 0.568177 0.822554
vt 0.549367 0.834466
vt 0.568177 0.834466
vt 0.549367 0.679416
vt 0.530557 0.699540
vt 0.549367 0.846043
vt 0.568177 0.846043
vt 0.549367 0.699540
vt 0.530557 0.718589
vt 0.549367 0.857361
vt 0.549367 0.718589
vt 0.530557 0.736410
vt 0.549367 0.857118
vt 0.530557 0.857118
vt 0.549367 0.736410
vt 0.530557 0.752891
vt 0.549367 0.752891
vt 0.530557 0.768160
vt 0.428775 0.634697
vt 0.459332 0.519300
vt 0.549367 0.768160
vt 0.530557 0.782512
vt 0.549367 0.782512
vt 0.530557 0.796124
vt 0.549367 0.796124
vt 0.530557 0.809126
vt 0.568178 0.797716
vt 0.586988 0.519300
vt 0.586988 0.797716
vt 0.549367 0.809126
vt 0.530557 0.821635
vt 0.490457 0.537946
vt 0.489890 0.519300
vt 0.490457 0.519300
vt 0.549367 0.821635
vt 0.530557 0.833750
vt 0.549367 0.833750
vt 0.530557 0.845554
vt 0.549367 0.845554
vt 0.549367 0.637568
vt 0.568177 0.519300
vt 0.530557 0.519300
vt 0.500000 0.519300
vt 0.489890 0.519300
vt 0.459333 0.519300
vt 0.000000 0.519300
vt 0.001543 0.304401
vt 0.003014 0.289506
vt 0.498457 0.304401
vt 0.005208 0.274482
vt 0.052937 0.167516
vt 0.008271 0.259350
vt 0.496986 0.289506
vt 0.012345 0.244132
vt 0.041666 0.182845
vt 0.017578 0.228851
vt 0.032093 0.198185
vt 0.024112 0.213528
vt 0.065816 0.152197
vt 0.434184 0.152197
vt 0.080154 0.136890
vt 0.419846 0.136889
vt 0.095800 0.121595
vt 0.404200 0.121595
vt 0.112603 0.106317
vt 0.387396 0.106317
vt 0.149081 0.075818
vt 0.350919 0.075818
vt 0.250000 0.000000
vt 0.447063 0.167516
vt 0.458334 0.182845
vt 0.491729 0.259350
vt 0.467907 0.198185
vt 0.487655 0.244132
vt 0.475888 0.213528
vt 0.482422 0.228851
vt 0.494792 0.274482
vt 0.428775 0.664360
vt 0.489890 0.934460
vt 0.617545 0.519300
vt 0.617545 0.668259
vt 0.549367 1.000000
vt 0.949116 0.241414
vt 0.943614 0.228512
vt 0.982422 0.228851
vt 0.975888 0.213528
vt 0.987654 0.244132
vt 0.953544 0.254346
vt 0.991729 0.259350
vt 0.994792 0.274482
vt 0.957028 0.267358
vt 0.959685 0.280487
vt 0.996986 0.289506
vt 0.998457 0.304401
vt 0.961623 0.293757
vt 0.999807 0.333716
vt 0.962949 0.307179
vt 1.000000 0.519300
vt 0.500000 0.519300
vt 0.500000 0.481381
vt 0.535612 0.483997
vt 0.500193 0.333716
vt 0.535799 0.334471
vt 0.501543 0.304401
vt 0.537051 0.307179
vt 0.503014 0.289506
vt 0.538377 0.293757
vt 0.505208 0.274482
vt 0.540315 0.280487
vt 0.508271 0.259350
vt 0.542972 0.267358
vt 0.512345 0.244132
vt 0.546456 0.254346
vt 0.517578 0.228851
vt 0.550884 0.241414
vt 0.556386 0.228513
vt 0.524112 0.213528
vt 0.532093 0.198185
vt 0.563109 0.215587
vt 0.541666 0.182845
vt 0.552937 0.167516
vt 0.571241 0.202556
vt 0.581034 0.189237
vt 0.565816 0.152197
vt 0.580154 0.136889
vt 0.592562 0.175525
vt 0.605718 0.161480
vt 0.595800 0.121595
vt 0.612604 0.106317
vt 0.620347 0.147180
vt 0.649081 0.075818
vt 0.750000 0.000000
vt 0.850919 0.075818
vt 0.887397 0.106317
vt 0.846619 0.118041
vt 0.904200 0.121595
vt 0.879653 0.147180
vt 0.919846 0.136889
vt 0.894282 0.161480
vt 0.934184 0.152197
vt 0.907438 0.175525
vt 0.947063 0.167516
vt 0.918966 0.189237
vt 0.958334 0.182845
vt 0.928759 0.202556
vt 0.967907 0.198185
vt 0.936890 0.215587
vt 0.749529 0.043497
vt 0.499429 0.537946
vt 0.530557 0.933664
vt 0.428775 0.519300
vt 0.568178 0.519300
vt 0.489890 0.537946
vt 0.549367 0.519300
vt 0.214859 0.959800
vt 0.117768 0.885256
vt 0.007359 0.735939
vt 0.000000 0.519300
vt 0.428775 0.519300
vt 0.428589 0.668826
vt 0.427336 0.696118
vt 0.000187 0.668826
vt 0.426011 0.709540
vt 0.001439 0.696118
vt 0.424073 0.722810
vt 0.383354 0.814060
vt 0.421416 0.735939
vt 0.002765 0.709540
vt 0.417932 0.748951
vt 0.393147 0.800741
vt 0.413504 0.761883
vt 0.401278 0.787710
vt 0.408002 0.774784
vt 0.371825 0.827772
vt 0.004703 0.722810
vt 0.358670 0.841817
vt 0.344041 0.856117
vt 0.311007 0.885256
vt 0.213916 0.959800
vt 0.214388 0.959456
vt 0.015272 0.761883
vt 0.010844 0.748951
vt 0.027497 0.787710
vt 0.035629 0.800741
vt 0.020773 0.774784
vt 0.045422 0.814060
vt 0.070106 0.841817
vt 0.056950 0.827772
vt 0.084734 0.856117
vn 0.6299 0.0008 0.7767
vn 0.0000 0.0000 -1.0000
vn -0.9469 -0.3214 0.0000
vn -0.6447 -0.7644 0.0000
vn -0.9665 -0.2566 0.0000
vn 0.6759 -0.7370 0.0000
vn -0.9805 -0.1967 -0.0000
vn 0.7021 -0.7120 0.0000
vn -0.9897 -0.1433 0.0000
vn 0.7328 -0.6804 0.0000
vn -0.9952 -0.0974 0.0000
vn 0.7682 -0.6402 0.0000
vn 0.5086 0.5716 0.6439
vn 0.8081 -0.5890 0.0000
vn 0.8504 -0.5261 0.0000
vn 0.8888 -0.4583 0.0000
vn 0.9211 -0.3894 0.0000
vn 0.9469 -0.3214 0.0000
vn 0.0000 1.0000 0.0000
vn 0.9665 -0.2566 0.0000
vn 0.9805 -0.1967 -0.0000
vn 0.9897 -0.1433 0.0000
vn 0.6447 -0.7644 0.0000
vn 0.9952 -0.0974 0.0000
vn -0.9990 -0.0456 0.0000
vn 0.6382 0.0290 0.7693
vn -1.0000 -0.0010 -0.0013
vn -0.6759 -0.7370 0.0000
vn -0.7021 -0.7120 0.0000
vn -0.7328 -0.6804 0.0000
vn -0.7682 -0.6402 0.0000
vn -0.8081 -0.5890 0.0000
vn -0.6299 0.0008 0.7767
vn -0.8504 -0.5261 0.0000
vn -0.8888 -0.4583 0.0000
vn -0.9211 -0.3894 0.0000
vn 0.0000 -0.0000 1.0000
vn -0.5086 0.5716 0.6439
vn 0.5341 0.5417 0.6491
vn 0.5538 0.5142 0.6550
vn 0.4505 -0.6119 -0.6501
vn 0.5747 0.4790 0.6635
vn 0.6040 -0.7970 0.0000
vn 0.5963 0.4346 0.6749
vn 0.6168 0.3815 0.6885
vn 0.6328 0.3263 0.7022
vn 0.6438 0.2722 0.7151
vn 0.6503 0.2207 0.7269
vn -0.4689 0.6054 0.6431
vn 0.6528 0.1733 0.7375
vn 0.6521 0.1308 0.7467
vn -0.5341 0.5417 0.6491
vn 0.6492 0.0940 0.7548
vn -0.5538 0.5142 0.6550
vn 0.6450 0.0631 0.7616
vn -0.5747 0.4790 0.6635
vn -0.6382 0.0290 0.7693
vn -0.5963 0.4346 0.6749
vn -0.6168 0.3815 0.6885
vn 1.0000 -0.0010 -0.0013
vn -0.6328 0.3263 0.7022
vn -0.6438 0.2722 0.7151
vn -0.6503 0.2207 0.7269
vn 0.0000 -0.5559 0.8312
vn -0.6528 0.1733 0.7375
vn -0.4505 -0.6119 -0.6501
vn -0.6521 0.1308 0.7467
vn -0.6492 0.0940 0.7548
vn -0.6450 0.0631 0.7616
vn 0.4689 0.6054 0.6431
vn 0.9990 -0.0456 0.0000
vn -0.6040 -0.7970 0.0000
vn -1.0000 -0.0013 0.0000
vn -1.0000 -0.0000 0.0000
vn -0.5963 0.4347 0.6749
vn 1.0000 -0.0000 0.0000
vn 1.0000 -0.0013 0.0000
usemtl Material.001
s off
f 19/1/1 108/2/1 1/3/1
f 54/4/2 20/5/2 70/6/2
f 83/7/3 49/8/3 48/9/3
f 74/10/4 40/11/4 39/12/4
f 84/13/5 50/14/5 49/8/5
f 93/15/6 56/16/6 57/17/6
f 85/18/7 51/19/7 50/14/7
f 94/20/8 57/17/8 58/21/8
f 86/22/9 52/23/9 51/19/9
f 95/24/10 58/21/10 59/25/10
f 87/26/11 53/27/11 52/23/11
f 96/28/12 59/25/12 60/29/12
f 6/30/13 112/31/13 113/32/13
f 97/33/14 60/29/14 61/34/14
f 98/35/15 61/34/15 62/36/15
f 99/37/16 62/36/16 63/38/16
f 100/39/17 63/38/17 64/40/17
f 101/41/18 64/40/18 65/42/18
f 71/43/19 38/44/19 20/45/19
f 102/46/20 65/42/20 66/47/20
f 103/48/21 66/47/21 67/49/21
f 104/50/22 67/49/22 68/51/22
f 91/52/23 56/16/23 92/53/23
f 105/54/24 68/51/24 69/55/24
f 88/56/25 54/57/25 53/27/25
f 19/1/26 125/58/26 126/59/26
f 90/60/27 20/61/27 54/62/27
f 75/63/28 41/64/28 40/11/28
f 76/65/29 42/66/29 41/64/29
f 77/67/30 43/68/30 42/66/30
f 78/69/31 44/70/31 43/68/31
f 79/71/32 45/72/32 44/70/32
f 37/73/33 109/74/33 142/75/33
f 80/76/34 46/77/34 45/72/34
f 81/78/35 47/79/35 46/77/35
f 82/80/36 48/9/36 47/79/36
f 2/81/37 37/82/37 107/83/37
f 3/84/37 4/85/37 5/86/37
f 23/87/38 129/88/38 128/89/38
f 7/90/39 113/32/39 114/91/39
f 8/92/40 114/91/40 115/93/40
f 3/94/41 127/95/41 110/96/41
f 9/97/42 115/93/42 116/98/42
f 91/52/43 21/99/43 55/100/43
f 10/101/44 116/98/44 117/102/44
f 11/103/45 117/102/45 118/104/45
f 12/105/46 118/104/46 119/106/46
f 13/107/47 119/106/47 120/108/47
f 14/109/48 120/108/48 121/110/48
f 22/111/49 128/89/49 127/112/49
f 15/113/50 121/110/50 122/114/50
f 16/115/51 122/114/51 123/116/51
f 24/117/52 130/118/52 129/88/52
f 17/119/53 123/116/53 124/120/53
f 25/121/54 131/122/54 130/118/54
f 18/123/55 124/120/55 125/58/55
f 26/124/56 132/125/56 131/122/56
f 36/126/57 142/75/57 141/127/57
f 27/128/58 133/129/58 132/125/58
f 28/130/59 134/131/59 133/129/59
f 38/44/60 107/132/60 70/133/60
f 29/134/61 135/135/61 134/131/61
f 30/136/62 136/137/62 135/135/62
f 31/138/63 137/139/63 136/137/63
f 2/140/64 108/141/64 109/142/64
f 32/143/65 138/144/65 137/139/65
f 4/145/66 110/146/66 111/147/66
f 33/148/67 139/149/67 138/144/67
f 34/150/68 140/151/68 139/149/68
f 35/152/69 141/127/69 140/151/69
f 5/153/70 111/154/70 112/31/70
f 106/155/71 69/55/71 70/156/71
f 73/157/72 39/12/72 21/158/72
f 19/1/1 126/59/1 108/2/1
f 20/5/2 38/159/2 70/6/2
f 70/6/2 69/160/2 54/4/2
f 69/160/2 68/161/2 53/162/2
f 54/4/2 69/160/2 53/162/2
f 68/161/2 67/163/2 60/164/2
f 67/163/2 66/165/2 60/164/2
f 68/161/2 52/166/2 53/162/2
f 66/165/2 65/167/2 61/168/2
f 65/167/2 64/169/2 62/170/2
f 64/169/2 63/171/2 62/170/2
f 62/170/2 61/168/2 65/167/2
f 61/168/2 60/164/2 66/165/2
f 60/164/2 59/172/2 43/173/2
f 59/172/2 58/174/2 42/175/2
f 58/174/2 57/176/2 41/177/2
f 57/176/2 56/178/2 40/179/2
f 56/178/2 55/180/2 39/181/2
f 55/180/2 21/182/2 39/181/2
f 39/181/2 40/179/2 56/178/2
f 40/179/2 41/177/2 57/176/2
f 41/177/2 42/175/2 58/174/2
f 42/175/2 43/173/2 59/172/2
f 43/173/2 44/183/2 60/164/2
f 60/164/2 44/183/2 52/166/2
f 44/183/2 45/184/2 50/185/2
f 45/184/2 46/186/2 49/187/2
f 50/185/2 45/184/2 49/187/2
f 46/186/2 47/188/2 48/189/2
f 48/189/2 49/187/2 46/186/2
f 50/185/2 51/190/2 44/183/2
f 51/190/2 52/166/2 44/183/2
f 68/161/2 60/164/2 52/166/2
f 83/7/3 84/13/3 49/8/3
f 74/10/4 75/63/4 40/11/4
f 84/13/5 85/18/5 50/14/5
f 93/15/6 92/53/6 56/16/6
f 85/18/7 86/22/7 51/19/7
f 94/20/8 93/15/8 57/17/8
f 86/22/9 87/26/9 52/23/9
f 95/24/10 94/20/10 58/21/10
f 87/26/11 88/56/11 53/27/11
f 96/28/12 95/24/12 59/25/12
f 6/30/13 5/153/13 112/31/13
f 97/33/14 96/28/14 60/29/14
f 98/35/15 97/33/15 61/34/15
f 99/37/16 98/35/16 62/36/16
f 100/39/17 99/37/17 63/38/17
f 101/41/18 100/39/18 64/40/18
f 71/43/19 72/191/19 38/44/19
f 102/46/20 101/41/20 65/42/20
f 103/48/21 102/46/21 66/47/21
f 104/50/22 103/48/22 67/49/22
f 91/52/23 55/100/23 56/16/23
f 105/54/24 104/50/24 68/51/24
f 88/56/25 89/192/25 54/57/25
f 19/1/26 18/123/26 125/58/26
f 54/62/73 89/193/73 90/60/73
f 90/60/74 71/194/74 20/61/74
f 75/63/28 76/65/28 41/64/28
f 76/65/29 77/67/29 42/66/29
f 77/67/30 78/69/30 43/68/30
f 78/69/31 79/71/31 44/70/31
f 79/71/32 80/76/32 45/72/32
f 37/73/33 2/195/33 109/74/33
f 80/76/34 81/78/34 46/77/34
f 81/78/35 82/80/35 47/79/35
f 82/80/36 83/7/36 48/9/36
f 31/196/37 30/197/37 100/198/37
f 30/197/37 99/199/37 100/198/37
f 100/198/37 101/200/37 31/196/37
f 31/196/37 101/200/37 32/201/37
f 101/200/37 102/202/37 32/201/37
f 102/202/37 103/203/37 33/204/37
f 33/204/37 103/203/37 34/205/37
f 103/203/37 104/206/37 34/205/37
f 104/206/37 105/207/37 35/208/37
f 105/207/37 106/209/37 36/210/37
f 106/209/37 107/83/37 37/82/37
f 105/207/37 36/210/37 35/208/37
f 107/83/37 72/211/37 2/81/37
f 72/211/37 71/212/37 2/81/37
f 71/212/37 90/213/37 1/214/37
f 90/213/37 89/215/37 19/216/37
f 89/215/37 88/217/37 18/218/37
f 88/217/37 87/219/37 17/220/37
f 87/219/37 86/221/37 16/222/37
f 86/221/37 85/223/37 15/224/37
f 87/219/37 16/222/37 17/220/37
f 85/223/37 84/225/37 14/226/37
f 84/225/37 83/227/37 13/228/37
f 85/223/37 14/226/37 15/224/37
f 13/228/37 14/226/37 84/225/37
f 90/213/37 19/216/37 1/214/37
f 88/217/37 17/220/37 18/218/37
f 104/206/37 35/208/37 34/205/37
f 33/204/37 32/201/37 102/202/37
f 16/222/37 86/221/37 15/224/37
f 89/215/37 18/218/37 19/216/37
f 36/210/37 106/209/37 37/82/37
f 71/212/37 1/214/37 2/81/37
f 12/229/37 13/228/37 83/227/37
f 83/227/37 82/230/37 12/229/37
f 82/230/37 81/231/37 11/232/37
f 12/229/37 82/230/37 11/232/37
f 81/231/37 80/233/37 11/232/37
f 80/233/37 79/234/37 10/235/37
f 10/235/37 79/234/37 9/236/37
f 79/234/37 78/237/37 9/236/37
f 78/237/37 77/238/37 8/239/37
f 8/239/37 77/238/37 7/240/37
f 77/238/37 76/241/37 7/240/37
f 76/241/37 75/242/37 6/243/37
f 7/240/37 76/241/37 6/243/37
f 75/242/37 74/244/37 5/86/37
f 74/244/37 73/245/37 3/84/37
f 5/86/37 74/244/37 3/84/37
f 73/245/37 91/246/37 3/84/37
f 91/246/37 92/247/37 23/248/37
f 92/247/37 93/249/37 24/250/37
f 93/249/37 94/251/37 25/252/37
f 94/251/37 95/253/37 26/254/37
f 95/253/37 96/255/37 27/256/37
f 94/251/37 26/254/37 25/252/37
f 96/255/37 97/257/37 28/258/37
f 97/257/37 98/259/37 29/260/37
f 96/255/37 28/258/37 27/256/37
f 98/259/37 99/199/37 29/260/37
f 99/199/37 30/197/37 29/260/37
f 91/246/37 23/248/37 3/84/37
f 93/249/37 25/252/37 24/250/37
f 78/237/37 8/239/37 9/236/37
f 26/254/37 95/253/37 27/256/37
f 29/260/37 28/258/37 97/257/37
f 10/235/37 11/232/37 80/233/37
f 92/247/37 24/250/37 23/248/37
f 6/243/37 75/242/37 5/86/37
f 23/248/37 22/261/37 3/84/37
f 23/87/38 24/117/38 129/88/38
f 7/90/39 6/30/39 113/32/39
f 8/92/40 7/90/40 114/91/40
f 3/94/41 22/262/41 127/95/41
f 9/97/42 8/92/42 115/93/42
f 91/52/43 73/263/43 21/99/43
f 10/101/44 9/97/44 116/98/44
f 11/103/45 10/101/45 117/102/45
f 12/105/46 11/103/46 118/104/46
f 13/107/47 12/105/47 119/106/47
f 14/109/48 13/107/48 120/108/48
f 22/111/49 23/87/49 128/89/49
f 15/113/50 14/109/50 121/110/50
f 16/115/51 15/113/51 122/114/51
f 24/117/52 25/121/52 130/118/52
f 17/119/53 16/115/53 123/116/53
f 25/121/54 26/124/54 131/122/54
f 18/123/55 17/119/55 124/120/55
f 26/124/56 27/128/56 132/125/56
f 36/126/57 37/73/57 142/75/57
f 27/128/75 28/130/75 133/129/75
f 28/130/59 29/134/59 134/131/59
f 72/191/76 107/132/76 38/44/76
f 107/132/77 106/264/77 70/133/77
f 29/134/61 30/136/61 135/135/61
f 30/136/62 31/138/62 136/137/62
f 31/138/63 32/143/63 137/139/63
f 2/140/64 1/265/64 108/141/64
f 32/143/65 33/148/65 138/144/65
f 4/145/66 3/266/66 110/146/66
f 33/148/67 34/150/67 139/149/67
f 34/150/68 35/152/68 140/151/68
f 35/152/69 36/126/69 141/127/69
f 5/153/70 4/267/70 111/154/70
f 106/155/71 105/54/71 69/55/71
f 73/157/72 74/10/72 39/12/72
f 127/268/37 128/269/37 138/270/37
f 109/271/37 108/272/37 126/273/37
f 126/273/37 125/274/37 142/275/37
f 125/274/37 124/276/37 141/277/37
f 142/275/37 125/274/37 141/277/37
f 124/276/37 123/278/37 116/279/37
f 123/278/37 122/280/37 116/279/37
f 124/276/37 140/281/37 141/277/37
f 122/280/37 121/282/37 117/283/37
f 121/282/37 120/284/37 118/285/37
f 120/284/37 119/286/37 118/285/37
f 118/285/37 117/283/37 121/282/37
f 117/283/37 116/279/37 122/280/37
f 116/279/37 115/287/37 139/288/37
f 115/287/37 114/289/37 138/270/37
f 114/289/37 113/290/37 138/270/37
f 113/290/37 112/291/37 138/270/37
f 111/292/2 110/293/2 138/270/2
f 110/293/2 127/268/2 138/270/2
f 112/291/37 111/292/37 138/270/37
f 115/287/37 138/270/37 139/288/37
f 140/281/37 124/276/37 116/279/37
f 142/275/37 109/271/37 126/273/37
f 139/288/37 140/281/37 116/279/37
f 136/294/37 137/295/37 134/296/37
f 137/295/37 138/270/37 133/297/37
f 134/296/37 137/295/37 133/297/37
f 134/296/37 135/298/37 136/294/37
f 132/299/37 133/297/37 138/270/37
f 130/300/37 131/301/37 138/270/37
f 131/301/37 132/299/37 138/270/37
f 128/269/37 129/302/37 138/270/37
f 129/302/37 130/300/37 138/270/37
