# Blender v2.79 (sub 0) OBJ File: ''
# www.blender.org
mtllib person.mtl
o Curve_CUpath815
v -0.009041 0.274537 -0.006691
v -0.024406 0.272502 -0.006691
v -0.039280 0.268506 -0.006691
v -0.053482 0.262624 -0.006691
v -0.066826 0.254934 -0.006691
v -0.079129 0.245510 -0.006691
v -0.090171 0.234469 -0.006691
v -0.099597 0.222169 -0.006691
v -0.107289 0.208827 -0.006691
v -0.113171 0.194628 -0.006691
v -0.117167 0.179756 -0.006691
v -0.119202 0.164395 -0.006691
v -0.119201 0.148782 -0.006691
v -0.117166 0.133421 -0.006691
v -0.113170 0.118549 -0.006691
v -0.107287 0.104351 -0.006691
v -0.099595 0.091011 -0.006691
v -0.090170 0.078710 -0.006691
v -0.079127 0.067670 -0.006691
v -0.066824 0.058247 -0.006691
v -0.053481 0.050556 -0.006691
v -0.039279 0.044675 -0.006691
v -0.024405 0.040679 -0.006691
v -0.009041 0.038645 -0.006691
v 0.006576 0.038644 -0.006691
v 0.021940 0.040678 -0.006691
v 0.036815 0.044674 -0.006691
v 0.051017 0.050555 -0.006691
v 0.064361 0.058245 -0.006691
v 0.076665 0.067668 -0.006691
v 0.087708 0.078708 -0.006691
v 0.097134 0.091009 -0.006691
v 0.104826 0.104350 -0.006691
v 0.110709 0.118549 -0.006691
v 0.114705 0.133420 -0.006691
v 0.116741 0.148781 -0.006691
v 0.116741 0.164395 -0.006691
v 0.114706 0.179757 -0.006691
v 0.110710 0.194629 -0.006691
v 0.104827 0.208828 -0.006691
v 0.097135 0.222170 -0.006691
v 0.087709 0.234471 -0.006691
v 0.076666 0.245512 -0.006691
v 0.064363 0.254935 -0.006691
v 0.051018 0.262626 -0.006691
v 0.036816 0.268507 -0.006691
v 0.021941 0.272503 -0.006691
v 0.006576 0.274537 -0.006691
v -0.120115 0.013689 -0.006691
v -0.124578 0.013198 -0.006691
v -0.135841 0.013691 -0.006691
v -0.141604 0.013181 -0.006691
v -0.150218 0.011446 -0.006691
v -0.158322 0.008647 -0.006691
v -0.165851 0.004869 -0.006691
v -0.172740 0.000198 -0.006691
v -0.178924 -0.005283 -0.006691
v -0.184337 -0.011488 -0.006691
v -0.188915 -0.018332 -0.006691
v -0.192593 -0.025731 -0.006691
v -0.195306 -0.033599 -0.006691
v -0.196988 -0.041851 -0.006691
v -0.197575 -0.050403 -0.006691
v -0.165529 -0.294483 -0.006691
v -0.162597 -0.304285 -0.006691
v -0.158262 -0.313299 -0.006691
v -0.152666 -0.321416 -0.006691
v -0.145950 -0.328529 -0.006691
v -0.138257 -0.334529 -0.006691
v -0.134088 -0.337079 -0.006691
v -0.133895 -0.360697 -0.006691
v -0.133328 -0.364719 -0.006691
v -0.132408 -0.368613 -0.006691
v -0.131152 -0.372363 -0.006691
v -0.129580 -0.375956 -0.006691
v -0.127712 -0.379375 -0.006691
v -0.084071 -0.742942 -0.006691
v -0.080480 -0.756282 -0.006691
v -0.075331 -0.767993 -0.006691
v -0.072286 -0.773081 -0.006691
v -0.068989 -0.777574 -0.006691
v -0.065484 -0.781411 -0.006691
v -0.061819 -0.784528 -0.006691
v -0.058037 -0.786863 -0.006691
v -0.054185 -0.788355 -0.006691
v -0.050308 -0.788940 -0.006691
v 0.066531 -0.787234 -0.006691
v 0.070375 -0.786698 -0.006691
v 0.074164 -0.785306 -0.006691
v 0.077853 -0.783113 -0.006691
v 0.081398 -0.780174 -0.006691
v 0.084756 -0.776542 -0.006691
v 0.087883 -0.772273 -0.006691
v 0.090736 -0.767420 -0.006691
v 0.095442 -0.756182 -0.006691
v 0.098525 -0.743263 -0.006691
v 0.128538 -0.375788 -0.006691
v 0.130936 -0.369756 -0.006691
v 0.132445 -0.363326 -0.006691
v 0.132837 -0.359982 -0.006691
v 0.132970 -0.332033 -0.006691
v 0.139172 -0.326621 -0.006691
v 0.144651 -0.320440 -0.006691
v 0.149321 -0.313554 -0.006691
v 0.153097 -0.306029 -0.006691
v 0.155894 -0.297929 -0.006691
v 0.156900 -0.293684 -0.006691
v 0.188784 -0.050403 -0.006691
v 0.188197 -0.041851 -0.006691
v 0.186514 -0.033599 -0.006691
v 0.183802 -0.025731 -0.006691
v 0.180124 -0.018332 -0.006691
v 0.175546 -0.011488 -0.006691
v 0.170132 -0.005283 -0.006691
v 0.163948 0.000198 -0.006691
v 0.157060 0.004869 -0.006691
v 0.149531 0.008647 -0.006691
v 0.141427 0.011446 -0.006691
v 0.132813 0.013181 -0.006691
v 0.127324 0.013678 -0.006691
v -0.009041 0.274537 0.043309
v -0.024406 0.272502 0.043309
v -0.039280 0.268506 0.043309
v -0.053482 0.262624 0.043309
v -0.066826 0.254934 0.043309
v -0.079129 0.245510 0.043309
v -0.090171 0.234469 0.043309
v -0.099597 0.222169 0.043309
v -0.107289 0.208827 0.043309
v -0.113171 0.194628 0.043309
v -0.117167 0.179756 0.043309
v -0.119202 0.164395 0.043309
v -0.119201 0.148782 0.043309
v -0.117166 0.133421 0.043309
v -0.113170 0.118549 0.043309
v -0.107287 0.104351 0.043309
v -0.099595 0.091011 0.043309
v -0.090170 0.078710 0.043309
v -0.079127 0.067670 0.043309
v -0.066824 0.058247 0.043309
v -0.053481 0.050556 0.043309
v -0.039279 0.044675 0.043309
v -0.024405 0.040679 0.043309
v -0.009041 0.038645 0.043309
v 0.006576 0.038644 0.043309
v 0.021940 0.040678 0.043309
v 0.036815 0.044674 0.043309
v 0.051017 0.050555 0.043309
v 0.064361 0.058245 0.043309
v 0.076665 0.067668 0.043309
v 0.087708 0.078708 0.043309
v 0.097134 0.091009 0.043309
v 0.104826 0.104350 0.043309
v 0.110709 0.118549 0.043309
v 0.114705 0.133420 0.043309
v 0.116741 0.148781 0.043309
v 0.116741 0.164395 0.043309
v 0.114706 0.179757 0.043309
v 0.110710 0.194629 0.043309
v 0.104827 0.208828 0.043309
v 0.097135 0.222170 0.043309
v 0.087709 0.234471 0.043309
v 0.076666 0.245512 0.043309
v 0.064363 0.254935 0.043309
v 0.051018 0.262626 0.043309
v 0.036816 0.268507 0.043309
v 0.021941 0.272503 0.043309
v 0.006576 0.274537 0.043309
v -0.120115 0.013689 0.043309
v -0.124578 0.013198 0.043309
v -0.135841 0.013691 0.043309
v -0.141604 0.013181 0.043309
v -0.150218 0.011446 0.043309
v -0.158322 0.008647 0.043309
v -0.165851 0.004869 0.043309
v -0.172740 0.000198 0.043309
v -0.178924 -0.005283 0.043309
v -0.184337 -0.011488 0.043309
v -0.188915 -0.018332 0.043309
v -0.192593 -0.025731 0.043309
v -0.195306 -0.033599 0.043309
v -0.196988 -0.041851 0.043309
v -0.197575 -0.050403 0.043309
v -0.165529 -0.294483 0.043309
v -0.162597 -0.304285 0.043309
v -0.158262 -0.313299 0.043309
v -0.152666 -0.321416 0.043309
v -0.145950 -0.328529 0.043309
v -0.138257 -0.334529 0.043309
v -0.134088 -0.337079 0.043309
v -0.133895 -0.360697 0.043309
v -0.133328 -0.364719 0.043309
v -0.132408 -0.368613 0.043309
v -0.131152 -0.372363 0.043309
v -0.129580 -0.375956 0.043309
v -0.127712 -0.379375 0.043309
v -0.084071 -0.742942 0.043309
v -0.080480 -0.756282 0.043309
v -0.075331 -0.767993 0.043309
v -0.072286 -0.773081 0.043309
v -0.068989 -0.777574 0.043309
v -0.065484 -0.781411 0.043309
v -0.061819 -0.784528 0.043309
v -0.058037 -0.786863 0.043309
v -0.054185 -0.788355 0.043309
v -0.050308 -0.788940 0.043309
v 0.066531 -0.787234 0.043309
v 0.070375 -0.786698 0.043309
v 0.074164 -0.785306 0.043309
v 0.077853 -0.783113 0.043309
v 0.081398 -0.780174 0.043309
v 0.084756 -0.776542 0.043309
v 0.087883 -0.772273 0.043309
v 0.090736 -0.767420 0.043309
v 0.095442 -0.756182 0.043309
v 0.098525 -0.743263 0.043309
v 0.128538 -0.375788 0.043309
v 0.130936 -0.369756 0.043309
v 0.132445 -0.363326 0.043309
v 0.132837 -0.359982 0.043309
v 0.132970 -0.332033 0.043309
v 0.139172 -0.326621 0.043309
v 0.144651 -0.320440 0.043309
v 0.149321 -0.313554 0.043309
v 0.153097 -0.306029 0.043309
v 0.155894 -0.297929 0.043309
v 0.156900 -0.293684 0.043309
v 0.188784 -0.050403 0.043309
v 0.188197 -0.041851 0.043309
v 0.186514 -0.033599 0.043309
v 0.183802 -0.025731 0.043309
v 0.180124 -0.018332 0.043309
v 0.175546 -0.011488 0.043309
v 0.170132 -0.005283 0.043309
v 0.163948 0.000198 0.043309
v 0.157060 0.004869 0.043309
v 0.149531 0.008647 0.043309
v 0.141427 0.011446 0.043309
v 0.132813 0.013181 0.043309
v 0.127324 0.013678 0.043309
vn -0.0000 0.0000 -1.0000
vn 0.0000 0.0000 1.0000
vn 0.4993 -0.8664 0.0000
vn 0.0437 0.9990 0.0000
vn 0.6633 0.7484 0.0000
vn -0.5613 0.8276 0.0000
vn 0.0902 0.9959 0.0000
vn 0.3265 0.9452 0.0000
vn -0.9239 0.3827 0.0000
vn 0.9967 -0.0814 0.0000
vn -0.9913 -0.1313 0.0000
vn 0.9735 -0.2285 0.0000
vn -0.8581 -0.5135 0.0000
vn -0.6081 0.7939 0.0000
vn -0.8062 -0.5916 0.0000
vn 0.8663 0.4995 0.0000
vn -0.3265 0.9452 0.0000
vn 0.9798 0.1998 0.0000
vn 0.4993 0.8664 0.0000
vn 1.0000 -0.0000 0.0000
vn 0.8067 -0.5909 0.0000
vn -0.9162 -0.4008 0.0000
vn -0.1313 0.9913 0.0000
vn -1.0000 -0.0000 0.0000
vn 0.1382 -0.9904 0.0000
vn 0.6081 0.7939 0.0000
vn -0.6150 -0.7885 0.0000
vn 0.1312 0.9913 0.0000
vn 0.9239 0.3827 0.0000
vn 0.8621 -0.5068 0.0000
vn -0.9581 -0.2866 0.0000
vn -0.6478 -0.7618 0.0000
vn 0.9913 -0.1313 0.0000
vn -0.8663 0.4995 0.0000
vn -0.9483 -0.3175 0.0000
vn -0.4993 0.8664 0.0000
vn -0.0881 0.9961 0.0000
vn -0.0000 1.0000 0.0000
vn -0.2594 -0.9658 0.0000
vn -0.9977 0.0685 0.0000
vn 0.5613 0.8276 0.0000
vn 0.5110 -0.8596 0.0000
vn -0.7070 -0.7072 0.0000
vn -0.7271 -0.6865 0.0000
vn -0.3610 -0.9325 0.0000
vn 0.2594 -0.9658 0.0000
vn 0.9731 -0.2305 0.0000
vn -0.9915 -0.1302 0.0000
vn -0.7535 0.6574 0.0000
vn 0.7070 -0.7072 0.0000
vn -0.4485 0.8938 0.0000
vn -0.1313 -0.9913 0.0000
vn 0.7535 0.6574 0.0000
vn 0.4485 0.8938 0.0000
vn 0.7484 -0.6633 0.0000
vn -0.9454 0.3259 0.0000
vn -0.6081 -0.7939 0.0000
vn -0.9657 0.2595 0.0000
vn -0.9902 -0.1394 0.0000
vn 0.7342 -0.6789 0.0000
vn -0.6633 0.7484 0.0000
vn -0.9656 -0.2600 0.0000
vn 0.6383 -0.7698 0.0000
vn 1.0000 -0.0048 0.0000
vn 0.3826 -0.9239 0.0000
vn -0.9798 0.1998 0.0000
vn -0.9657 -0.2595 0.0000
vn 0.0146 -0.9999 0.0000
vn 0.1975 0.9803 0.0000
vn -0.7070 0.7072 0.0000
vn -0.1492 -0.9888 0.0000
vn 0.9224 -0.3863 0.0000
vn 0.9977 0.0685 0.0000
vn 0.9915 -0.1299 0.0000
vn 0.9452 -0.3265 0.0000
vn -0.8775 -0.4795 0.0000
vn 0.7938 -0.6082 0.0000
vn 0.3448 -0.9387 0.0000
vn 0.6574 -0.7535 0.0000
vn 0.8663 -0.4995 0.0000
vn 0.8955 0.4452 0.0000
vn 0.9293 -0.3695 0.0000
vn -0.9913 0.1313 0.0000
vn -0.5254 -0.8508 0.0000
vn -0.2595 0.9658 0.0000
vn -0.5216 -0.8532 0.0000
vn 0.9454 0.3260 0.0000
vn 0.9932 -0.1162 0.0000
vn -0.9012 -0.4334 0.0000
vn -0.9929 -0.1192 0.0000
vn 0.7938 0.6082 0.0000
vn -0.9154 -0.4025 0.0000
vn -0.9732 -0.2301 0.0000
vn -0.8312 0.5560 0.0000
vn -0.9238 -0.3828 0.0000
vn 0.3826 0.9239 0.0000
vn -0.3826 -0.9239 0.0000
vn 0.8938 -0.4485 0.0000
vn 0.9913 0.1313 0.0000
vn -0.8955 0.4452 0.0000
vn -0.7938 0.6082 0.0000
vn 0.9238 -0.3828 0.0000
vn -0.3826 0.9239 0.0000
vn -0.8233 -0.5676 0.0000
vn 0.9727 -0.2321 0.0000
vn -0.1093 0.9940 0.0000
vn -0.7938 -0.6082 0.0000
vn 0.7070 0.7072 0.0000
vn 0.1312 -0.9914 0.0000
vn -1.0000 -0.0082 0.0000
vn -0.7383 -0.6744 0.0000
vn 0.2594 0.9658 0.0000
vn 0.6081 -0.7939 0.0000
vn -0.1975 0.9803 0.0000
vn 0.9657 0.2595 0.0000
vn 0.8312 0.5560 0.0000
vn -0.4993 -0.8664 0.0000
vn 0.9657 -0.2596 0.0000
vn -0.8663 -0.4995 0.0000
vn -0.0000 -1.0000 0.0000
vn 0.8276 -0.5613 0.0000
usemtl SVGMat.001
s off
f 97//1 101//1 100//1
f 48//1 3//1 1//1
f 18//1 15//1 19//1
f 39//1 41//1 40//1
f 43//1 31//1 47//1
f 15//1 47//1 23//1
f 7//1 9//1 8//1
f 3//1 7//1 4//1
f 9//1 15//1 11//1
f 19//1 15//1 21//1
f 23//1 31//1 25//1
f 21//1 15//1 23//1
f 23//1 47//1 31//1
f 89//1 87//1 90//1
f 31//1 39//1 33//1
f 7//1 15//1 9//1
f 15//1 17//1 16//1
f 60//1 62//1 61//1
f 52//1 54//1 53//1
f 21//1 23//1 22//1
f 3//1 15//1 7//1
f 75//1 72//1 76//1
f 70//1 107//1 101//1
f 77//1 86//1 78//1
f 72//1 74//1 73//1
f 71//1 76//1 72//1
f 33//1 39//1 35//1
f 27//1 31//1 28//1
f 31//1 33//1 32//1
f 35//1 39//1 36//1
f 23//1 25//1 24//1
f 19//1 21//1 20//1
f 42//1 39//1 43//1
f 46//1 43//1 47//1
f 43//1 45//1 44//1
f 36//1 39//1 37//1
f 33//1 35//1 34//1
f 54//1 56//1 55//1
f 50//1 52//1 51//1
f 47//1 15//1 3//1
f 108//1 119//1 109//1
f 119//1 108//1 120//1
f 106//1 101//1 107//1
f 105//1 101//1 106//1
f 70//1 101//1 76//1
f 76//1 97//1 77//1
f 56//1 54//1 57//1
f 52//1 62//1 54//1
f 111//1 119//1 113//1
f 50//1 62//1 52//1
f 120//1 107//1 49//1
f 25//1 31//1 27//1
f 82//1 86//1 83//1
f 64//1 107//1 70//1
f 66//1 64//1 70//1
f 97//1 96//1 77//1
f 111//1 113//1 112//1
f 79//1 86//1 80//1
f 113//1 115//1 114//1
f 115//1 117//1 116//1
f 118//1 115//1 119//1
f 78//1 86//1 79//1
f 103//1 105//1 104//1
f 109//1 119//1 111//1
f 107//1 64//1 49//1
f 101//1 103//1 102//1
f 45//1 43//1 46//1
f 87//1 77//1 96//1
f 74//1 72//1 75//1
f 98//1 100//1 99//1
f 97//1 100//1 98//1
f 94//1 87//1 95//1
f 93//1 87//1 94//1
f 92//1 87//1 93//1
f 91//1 87//1 92//1
f 90//1 87//1 91//1
f 96//1 95//1 87//1
f 87//1 89//1 88//1
f 86//1 77//1 87//1
f 83//1 86//1 84//1
f 113//1 119//1 115//1
f 117//1 115//1 118//1
f 81//1 86//1 82//1
f 69//1 66//1 70//1
f 109//1 111//1 110//1
f 25//1 27//1 26//1
f 80//1 86//1 81//1
f 54//1 62//1 58//1
f 9//1 11//1 10//1
f 12//1 15//1 13//1
f 4//1 7//1 5//1
f 1//1 3//1 2//1
f 5//1 7//1 6//1
f 107//1 120//1 108//1
f 17//1 15//1 18//1
f 13//1 15//1 14//1
f 11//1 15//1 12//1
f 41//1 39//1 42//1
f 37//1 39//1 38//1
f 39//1 31//1 43//1
f 29//1 31//1 30//1
f 84//1 86//1 85//1
f 28//1 31//1 29//1
f 101//1 105//1 103//1
f 76//1 101//1 97//1
f 57//1 54//1 58//1
f 58//1 62//1 59//1
f 59//1 62//1 60//1
f 62//1 50//1 63//1
f 63//1 49//1 64//1
f 63//1 50//1 49//1
f 64//1 66//1 65//1
f 47//1 3//1 48//1
f 70//1 76//1 71//1
f 68//1 66//1 69//1
f 66//1 68//1 67//1
f 217//2 220//2 221//2
f 168//2 121//2 123//2
f 138//2 139//2 135//2
f 159//2 160//2 161//2
f 163//2 167//2 151//2
f 135//2 143//2 167//2
f 127//2 128//2 129//2
f 123//2 124//2 127//2
f 129//2 131//2 135//2
f 139//2 141//2 135//2
f 143//2 145//2 151//2
f 141//2 143//2 135//2
f 143//2 151//2 167//2
f 209//2 210//2 207//2
f 151//2 153//2 159//2
f 127//2 129//2 135//2
f 135//2 136//2 137//2
f 180//2 181//2 182//2
f 172//2 173//2 174//2
f 141//2 142//2 143//2
f 123//2 127//2 135//2
f 195//2 196//2 192//2
f 190//2 221//2 227//2
f 197//2 198//2 206//2
f 192//2 193//2 194//2
f 191//2 192//2 196//2
f 153//2 155//2 159//2
f 147//2 148//2 151//2
f 151//2 152//2 153//2
f 155//2 156//2 159//2
f 143//2 144//2 145//2
f 139//2 140//2 141//2
f 162//2 163//2 159//2
f 166//2 167//2 163//2
f 163//2 164//2 165//2
f 156//2 157//2 159//2
f 153//2 154//2 155//2
f 174//2 175//2 176//2
f 170//2 171//2 172//2
f 167//2 123//2 135//2
f 228//2 229//2 239//2
f 239//2 240//2 228//2
f 226//2 227//2 221//2
f 225//2 226//2 221//2
f 190//2 196//2 221//2
f 196//2 197//2 217//2
f 176//2 177//2 174//2
f 172//2 174//2 182//2
f 231//2 233//2 239//2
f 170//2 172//2 182//2
f 240//2 169//2 227//2
f 145//2 147//2 151//2
f 202//2 203//2 206//2
f 184//2 190//2 227//2
f 186//2 190//2 184//2
f 217//2 197//2 216//2
f 231//2 232//2 233//2
f 199//2 200//2 206//2
f 233//2 234//2 235//2
f 235//2 236//2 237//2
f 238//2 239//2 235//2
f 198//2 199//2 206//2
f 223//2 224//2 225//2
f 229//2 231//2 239//2
f 227//2 169//2 184//2
f 221//2 222//2 223//2
f 165//2 166//2 163//2
f 207//2 216//2 197//2
f 194//2 195//2 192//2
f 218//2 219//2 220//2
f 217//2 218//2 220//2
f 214//2 215//2 207//2
f 213//2 214//2 207//2
f 212//2 213//2 207//2
f 211//2 212//2 207//2
f 210//2 211//2 207//2
f 216//2 207//2 215//2
f 207//2 208//2 209//2
f 206//2 207//2 197//2
f 203//2 204//2 206//2
f 233//2 235//2 239//2
f 237//2 238//2 235//2
f 201//2 202//2 206//2
f 189//2 190//2 186//2
f 229//2 230//2 231//2
f 145//2 146//2 147//2
f 200//2 201//2 206//2
f 174//2 178//2 182//2
f 129//2 130//2 131//2
f 132//2 133//2 135//2
f 124//2 125//2 127//2
f 121//2 122//2 123//2
f 125//2 126//2 127//2
f 227//2 228//2 240//2
f 137//2 138//2 135//2
f 133//2 134//2 135//2
f 131//2 132//2 135//2
f 161//2 162//2 159//2
f 157//2 158//2 159//2
f 159//2 163//2 151//2
f 149//2 150//2 151//2
f 204//2 205//2 206//2
f 148//2 149//2 151//2
f 221//2 223//2 225//2
f 196//2 217//2 221//2
f 177//2 178//2 174//2
f 178//2 179//2 182//2
f 179//2 180//2 182//2
f 182//2 183//2 170//2
f 183//2 184//2 169//2
f 183//2 169//2 170//2
f 184//2 185//2 186//2
f 167//2 168//2 123//2
f 190//2 191//2 196//2
f 188//2 189//2 186//2
f 186//2 187//2 188//2
f 28//3 29//3 149//3 148//3
f 50//4 51//4 171//4 170//4
f 114//5 115//5 235//5 234//5
f 55//6 56//6 176//6 175//6
f 119//7 120//7 240//7 239//7
f 117//8 118//8 238//8 237//8
f 9//9 10//9 130//9 129//9
f 96//10 97//10 217//10 216//10
f 13//11 14//11 134//11 133//11
f 98//12 99//12 219//12 218//12
f 79//13 80//13 200//13 199//13
f 5//14 6//14 126//14 125//14
f 80//15 81//15 201//15 200//15
f 40//16 41//16 161//16 160//16
f 53//17 54//17 174//17 173//17
f 109//18 110//18 230//18 229//18
f 44//19 45//19 165//19 164//19
f 36//20 37//20 157//20 156//20
f 92//21 93//21 213//21 212//21
f 74//22 75//22 195//22 194//22
f 1//23 2//23 122//23 121//23
f 12//24 13//24 133//24 132//24
f 87//25 88//25 208//25 207//25
f 43//26 44//26 164//26 163//26
f 68//27 69//27 189//27 188//27
f 47//28 48//28 168//28 167//28
f 39//29 40//29 160//29 159//29
f 93//30 94//30 214//30 213//30
f 64//31 65//31 185//31 184//31
f 82//32 83//32 203//32 202//32
f 35//33 36//33 156//33 155//33
f 8//34 9//34 129//34 128//34
f 73//35 74//35 194//35 193//35
f 4//36 5//36 125//36 124//36
f 51//37 52//37 172//37 171//37
f 48//38 1//38 121//38 168//38
f 22//39 23//39 143//39 142//39
f 62//40 63//40 183//40 182//40
f 115//41 116//41 236//41 235//41
f 89//42 90//42 210//42 209//42
f 18//43 19//43 139//43 138//43
f 67//44 68//44 188//44 187//44
f 84//45 85//45 205//45 204//45
f 26//46 27//46 147//46 146//46
f 106//47 107//47 227//47 226//47
f 63//48 64//48 184//48 183//48
f 57//49 58//49 178//49 177//49
f 30//50 31//50 151//50 150//50
f 54//51 55//51 175//51 174//51
f 23//52 24//52 144//52 143//52
f 113//53 114//53 234//53 233//53
f 116//54 117//54 237//54 236//54
f 102//55 103//55 223//55 222//55
f 60//56 61//56 181//56 180//56
f 19//57 20//57 140//57 139//57
f 10//58 11//58 131//58 130//58
f 71//59 72//59 192//59 191//59
f 91//60 92//60 212//60 211//60
f 56//61 57//61 177//61 176//61
f 77//62 78//62 198//62 197//62
f 90//63 91//63 211//63 210//63
f 100//64 101//64 221//64 220//64
f 27//65 28//65 148//65 147//65
f 61//66 62//66 182//66 181//66
f 14//67 15//67 135//67 134//67
f 86//68 87//68 207//68 206//68
f 118//69 119//69 239//69 238//69
f 6//70 7//70 127//70 126//70
f 85//71 86//71 206//71 205//71
f 94//72 95//72 215//72 214//72
f 108//73 109//73 229//73 228//73
f 107//74 108//74 228//74 227//74
f 105//75 106//75 226//75 225//75
f 75//76 76//76 196//76 195//76
f 31//77 32//77 152//77 151//77
f 88//78 89//78 209//78 208//78
f 101//79 102//79 222//79 221//79
f 32//80 33//80 153//80 152//80
f 111//81 112//81 232//81 231//81
f 97//82 98//82 218//82 217//82
f 11//83 12//83 132//83 131//83
f 83//84 84//84 204//84 203//84
f 2//85 3//85 123//85 122//85
f 69//86 70//86 190//86 189//86
f 110//87 111//87 231//87 230//87
f 99//88 100//88 220//88 219//88
f 65//89 66//89 186//89 185//89
f 76//90 77//90 197//90 196//90
f 41//91 42//91 162//91 161//91
f 78//92 79//92 199//92 198//92
f 72//93 73//93 193//93 192//93
f 58//94 59//94 179//94 178//94
f 15//95 16//95 136//95 135//95
f 45//96 46//96 166//96 165//96
f 21//97 22//97 142//97 141//97
f 104//98 105//98 225//98 224//98
f 37//99 38//99 158//99 157//99
f 59//100 60//100 180//100 179//100
f 7//101 8//101 128//101 127//101
f 33//102 34//102 154//102 153//102
f 3//103 4//103 124//103 123//103
f 66//104 67//104 187//104 186//104
f 95//105 96//105 216//105 215//105
f 49//106 50//106 170//106 169//106
f 17//107 18//107 138//107 137//107
f 42//108 43//108 163//108 162//108
f 25//109 26//109 146//109 145//109
f 70//110 71//110 191//110 190//110
f 81//111 82//111 202//111 201//111
f 46//112 47//112 167//112 166//112
f 29//113 30//113 150//113 149//113
f 52//114 53//114 173//114 172//114
f 38//115 39//115 159//115 158//115
f 112//116 113//116 233//116 232//116
f 20//117 21//117 141//117 140//117
f 34//118 35//118 155//118 154//118
f 16//119 17//119 137//119 136//119
f 120//38 49//38 169//38 240//38
f 24//120 25//120 145//120 144//120
f 103//121 104//121 224//121 223//121
